<svg xmlns="http://www.w3.org/2000/svg" xmlns:xlink="http://www.w3.org/1999/xlink" width="2000" zoomAndPan="magnify" viewBox="0 0 1500 1499.999933" height="2000" preserveAspectRatio="xMidYMid meet" version="1.0"><defs><clipPath id="638094027a"><path d="M 484.472656 354.136719 L 677.222656 354.136719 L 677.222656 545.386719 L 484.472656 545.386719 Z M 484.472656 354.136719 " clip-rule="nonzero"/></clipPath><clipPath id="a19a932bd5"><path d="M 227 150 L 1473.660156 150 L 1473.660156 469 L 227 469 Z M 227 150 " clip-rule="nonzero"/></clipPath><clipPath id="6bdfa19cd6"><path d="M 26.160156 985 L 1273 985 L 1273 1304.25 L 26.160156 1304.25 Z M 26.160156 985 " clip-rule="nonzero"/></clipPath></defs><g clip-path="url(#638094027a)"><path fill="#000000" d="M 676.960938 442.933594 C 676.277344 434.03125 674.40625 425.371094 671.710938 416.917969 C 668.214844 405.953125 662.4375 396.246094 654.683594 387.691406 C 649.992188 382.523438 645.15625 377.5 639.8125 373.023438 C 634.175781 368.300781 627.53125 365.105469 620.929688 362.019531 C 612.199219 357.9375 602.898438 355.902344 593.300781 354.847656 C 583.351562 353.753906 573.511719 353.796875 563.71875 355.839844 C 552.144531 358.253906 541.246094 362.304688 530.8125 368.027344 C 516.878906 375.671875 506.367188 386.796875 498.035156 399.820312 C 488.75 414.332031 485.167969 430.835938 484.523438 447.96875 C 484.320312 454.742188 485.144531 461.40625 486.335938 468.042969 C 489.660156 486.59375 498.621094 502.332031 511.007812 516.148438 C 517.515625 523.410156 525.945312 528.449219 534.359375 533.289062 C 546.449219 540.246094 559.515625 544.03125 573.441406 545.101562 C 581.789062 545.742188 590.070312 545.296875 598.21875 543.742188 C 614.351562 540.660156 629.054688 534.167969 641.914062 523.832031 C 650.84375 516.65625 658.753906 508.492188 664.347656 498.390625 C 669.738281 488.660156 673.617188 478.363281 675.523438 467.328125 C 676.921875 459.230469 677.597656 451.152344 676.960938 442.933594 Z M 653.90625 402.492188 C 655.457031 408.578125 655.894531 414.835938 656.976562 420.992188 C 657.164062 422.046875 656.683594 422.375 655.796875 422.714844 C 650.707031 424.664062 645.386719 425.898438 640.25 427.699219 C 639.253906 428.046875 638.898438 427.476562 638.367188 426.953125 C 630.550781 419.203125 622.09375 412.253906 612.691406 406.492188 C 612.394531 406.3125 612.121094 406.042969 611.800781 405.957031 C 608.785156 405.167969 607.910156 402.9375 607.460938 400.125 C 606.402344 393.476562 604.527344 387.019531 602.109375 380.738281 C 601.585938 379.375 601.914062 378.878906 603.050781 378.214844 C 606.929688 375.949219 611.144531 374.488281 615.3125 372.914062 C 615.894531 372.691406 616.5625 372.703125 617.027344 372.632812 C 620.132812 372.746094 622.886719 373.648438 625.488281 374.941406 C 632.730469 378.542969 639.449219 382.953125 645.851562 387.902344 C 650.703125 391.652344 652.484375 396.90625 653.90625 402.492188 Z M 637.210938 435.082031 C 636.882812 445.605469 636.054688 455.175781 634.410156 464.671875 C 634.175781 466.039062 633.417969 466.667969 632.386719 467.242188 C 623.375 472.25 613.753906 475.679688 603.863281 478.492188 C 601.347656 479.207031 599.503906 478.777344 597.5 477.300781 C 589.734375 471.589844 582.289062 465.488281 574.878906 459.335938 C 573.929688 458.546875 573.625 457.6875 573.621094 456.488281 C 573.589844 448.242188 574.527344 440.070312 575.296875 431.882812 C 575.574219 428.9375 576.019531 426.023438 576.441406 423.101562 C 576.558594 422.289062 576.878906 421.761719 577.5625 421.292969 C 585.257812 416.019531 593.660156 412.148438 602.265625 408.671875 C 602.320312 408.648438 602.386719 408.652344 602.433594 408.621094 C 605.546875 406.457031 608.296875 407.5625 611.152344 409.351562 C 619.953125 414.871094 627.847656 421.464844 635.183594 428.789062 C 637.328125 430.929688 637.417969 433.339844 637.210938 435.082031 Z M 562.855469 359.183594 C 570.742188 357.460938 578.699219 357.175781 586.742188 357.585938 C 592.375 357.871094 597.953125 358.492188 603.472656 359.558594 C 608.695312 360.570312 612.609375 363.617188 615.496094 368.035156 C 616.183594 369.089844 615.945312 369.640625 614.695312 369.960938 C 610.414062 371.066406 606.308594 372.636719 602.4375 374.785156 C 601.003906 375.582031 599.472656 375.375 598.027344 375.105469 C 587.242188 373.109375 576.425781 371.4375 565.425781 371.3125 C 564.621094 371.304688 563.964844 371.074219 563.402344 370.5 C 562.953125 370.046875 562.449219 369.648438 561.988281 369.207031 C 557.773438 365.207031 556.46875 364.457031 550.617188 362.804688 C 554.800781 361.136719 558.796875 360.070312 562.855469 359.183594 Z M 570.222656 456.527344 C 570.246094 457.359375 570.144531 457.878906 569.261719 458.28125 C 559.902344 462.523438 551.207031 467.992188 542.289062 473.058594 C 540.898438 473.847656 539.792969 473.863281 538.46875 473.132812 C 533.421875 470.34375 528.875 466.835938 524.351562 463.304688 C 521.152344 460.804688 518.039062 458.195312 514.863281 455.664062 C 514.101562 455.054688 513.621094 454.394531 513.558594 453.363281 C 513.171875 447.164062 513.140625 440.988281 513.847656 434.789062 C 514.414062 429.839844 514.894531 424.886719 515.703125 419.96875 C 515.800781 419.367188 515.949219 418.945312 516.496094 418.554688 C 523.441406 413.609375 530.527344 408.898438 538.394531 405.488281 C 541.207031 404.269531 544.003906 403.003906 546.785156 401.710938 C 547.519531 401.371094 548.054688 401.546875 548.71875 401.886719 C 556.53125 405.90625 563.210938 411.457031 569.648438 417.339844 C 570.675781 418.277344 571.660156 419.265625 572.660156 420.238281 C 572.980469 420.550781 573.4375 420.8125 573.121094 421.515625 C 572.441406 428.125 571.683594 434.859375 571.070312 441.601562 C 570.617188 446.566406 570.085938 451.53125 570.222656 456.527344 Z M 533.996094 369.742188 C 535.898438 368.761719 537.832031 367.828125 539.789062 366.960938 C 541.71875 366.105469 543.734375 365.570312 545.691406 365.824219 C 551.660156 365.621094 556.34375 367.933594 560.238281 372.066406 C 560.699219 372.550781 561.144531 372.898438 560.59375 373.644531 C 555.277344 380.796875 551.539062 388.871094 547.210938 396.605469 C 546.84375 397.261719 546.492188 397.894531 545.730469 398.230469 C 535.371094 402.808594 525.394531 408.09375 516.121094 414.632812 C 515.167969 415.304688 514.65625 415.175781 513.835938 414.394531 C 511.484375 412.152344 509.050781 409.992188 506.558594 407.90625 C 505.621094 407.121094 505.339844 406.359375 505.675781 405.21875 C 506.390625 402.769531 507.511719 400.460938 508.28125 398.042969 C 512.546875 384.675781 521.910156 375.976562 533.996094 369.742188 Z M 506.414062 394.230469 C 504.335938 398.976562 502.445312 403.8125 500.136719 408.441406 C 497.164062 414.390625 493.726562 420.105469 491.507812 426.417969 C 491.113281 427.542969 490.953125 428.769531 490.097656 429.679688 C 493.085938 416.726562 497.417969 404.417969 506.414062 394.230469 Z M 499.339844 494.339844 C 491.441406 479.589844 487.613281 464.328125 488.117188 448.003906 C 488.757812 450.375 489.371094 452.753906 490.042969 455.117188 C 491.261719 459.40625 492.585938 463.660156 494.546875 467.679688 C 494.964844 468.539062 495.144531 469.472656 495.152344 470.371094 C 495.226562 478.273438 496.800781 485.894531 499.328125 493.347656 C 499.398438 493.546875 499.339844 493.785156 499.339844 494.339844 Z M 533.210938 519.175781 C 532.523438 519.5625 531.984375 519.648438 531.28125 519.304688 C 521.445312 514.476562 512.574219 508.375 505.527344 499.855469 C 504.578125 498.707031 504.148438 497.320312 503.679688 495.960938 C 501.441406 489.445312 499.199219 482.9375 498.824219 475.949219 C 498.664062 473.019531 499.101562 470.167969 499.40625 467.289062 C 499.476562 466.636719 499.871094 466.140625 500.398438 465.71875 C 503.808594 463.007812 507.328125 460.457031 511.070312 458.222656 C 511.363281 458.046875 511.675781 457.90625 511.863281 457.8125 C 512.542969 457.808594 512.820312 458.222656 513.15625 458.527344 C 520.839844 465.472656 529.132812 471.597656 538.054688 476.859375 C 538.902344 477.355469 539.359375 477.945312 539.570312 478.988281 C 541.347656 487.792969 543.5 496.492188 547.304688 504.691406 C 548.574219 507.421875 548.566406 507.40625 546.339844 509.488281 C 542.339844 513.230469 537.996094 516.492188 533.210938 519.175781 Z M 588.597656 541.382812 C 582.332031 542.273438 575.984375 542.324219 569.675781 541.375 C 564.578125 540.609375 559.523438 539.640625 554.523438 538.375 C 552.789062 537.9375 551.300781 537.070312 549.867188 536.09375 C 544.707031 532.582031 539.949219 528.628906 536.226562 523.542969 C 535.460938 522.496094 535.023438 522.003906 536.574219 521.035156 C 541.597656 517.902344 546.398438 514.421875 550.667969 510.28125 C 551.339844 509.628906 551.832031 509.519531 552.734375 509.84375 C 558.652344 511.992188 564.792969 513.132812 571.058594 513.632812 C 575.683594 514 580.320312 514.191406 584.960938 514.242188 C 585.707031 514.25 586.253906 514.546875 586.816406 515.023438 C 592.957031 520.253906 599.089844 525.496094 605.890625 530.238281 C 600.683594 534.980469 595.941406 540.339844 588.597656 541.382812 Z M 635.289062 517.027344 C 628.140625 521.625 620.648438 525.46875 612.175781 527.023438 C 611.378906 527.171875 610.570312 527.226562 609.765625 527.328125 C 608.40625 527.503906 607.253906 526.996094 606.171875 526.261719 C 600.097656 522.152344 594.675781 517.253906 589.265625 512.335938 C 588.480469 511.625 588.75 511.09375 589.136719 510.402344 C 593.9375 501.863281 598.222656 493.078125 601.480469 483.824219 C 601.78125 482.96875 602.351562 482.726562 603.101562 482.476562 C 611.230469 479.785156 619.339844 477.035156 627.242188 473.726562 C 629.378906 472.832031 631.457031 471.800781 633.511719 470.730469 C 634.597656 470.164062 635.53125 470.15625 636.59375 470.746094 C 639.707031 472.484375 642.378906 474.8125 645.042969 477.132812 C 647.1875 479 649.199219 481.015625 651.296875 482.929688 C 652.011719 483.582031 652.285156 484.296875 652.109375 485.246094 C 650.515625 493.859375 647.515625 501.960938 643.1875 509.574219 C 641.320312 512.855469 638.371094 515.042969 635.289062 517.027344 Z M 673.734375 459.886719 C 672.949219 466.027344 671.148438 472.960938 668.910156 479.804688 C 665.519531 490.15625 660.695312 499.71875 653.582031 508.039062 C 652.226562 509.625 650.765625 511.125 649.367188 512.675781 C 648.515625 513.617188 647.8125 514.4375 646.367188 513.316406 C 644.792969 512.101562 646.082031 511.273438 646.550781 510.417969 C 650.664062 502.894531 653.519531 494.894531 655.351562 486.554688 C 655.804688 484.492188 656.527344 482.800781 657.820312 481.167969 C 663.097656 474.519531 666.996094 467.121094 669.605469 459.035156 C 669.902344 458.109375 669.863281 456.808594 671.480469 456.710938 C 673.863281 456.566406 673.859375 456.476562 673.734375 459.886719 Z M 673.144531 453.027344 C 672.109375 453.042969 670.921875 453.308594 670.761719 451.5625 C 670.488281 448.625 670.105469 445.6875 669.582031 442.785156 C 668.382812 436.164062 666.289062 429.855469 662.082031 424.488281 C 660.296875 422.210938 660.214844 419.574219 659.792969 416.976562 C 658.785156 410.75 658.152344 404.453125 656.265625 398.398438 C 655.671875 396.496094 654.9375 394.636719 654.265625 392.757812 C 657.082031 395.796875 659.371094 399.1875 661.476562 402.710938 C 668.324219 414.152344 671.941406 426.59375 673.132812 439.824219 C 673.484375 443.695312 673.828125 447.558594 673.75 451.445312 C 673.738281 451.960938 674.402344 453.007812 673.144531 453.027344 Z M 673.144531 453.027344 " fill-opacity="1" fill-rule="nonzero"/></g><g clip-path="url(#a19a932bd5)"><path fill="#17238d" d="M 463.328125 150 L 1473.453125 150 L 1237.765625 468.894531 L 227.632812 468.894531 Z M 463.328125 150 " fill-opacity="1" fill-rule="evenodd"/></g><path fill="#001450" d="M 227.632812 468.894531 L 732.699219 468.894531 L 477.109375 813.210938 L 255.1875 507.039062 Z M 227.632812 468.894531 " fill-opacity="1" fill-rule="evenodd"/><g clip-path="url(#6bdfa19cd6)"><path fill="#17238d" d="M 1036.757812 1304.519531 L 26.632812 1304.519531 L 262.839844 985.625 L 1272.964844 985.625 Z M 1036.757812 1304.519531 " fill-opacity="1" fill-rule="evenodd"/></g><path fill="#001450" d="M 1272.964844 985.625 L 767.898438 985.625 L 1022.980469 641.308594 L 1245.410156 947.480469 Z M 1272.964844 985.625 " fill-opacity="1" fill-rule="evenodd"/></svg>